# xmcd CD database file
#
# Track frame offsets:
#	150
#	18855
#	37932
#	55370
#	78092
#	94852
#	118322
#	130507
#	148245
#	167510
#	190280
#	204407
#
# Disc length: 3028 seconds
#
# Revision: 4
# Processed by: cddbd v1.4PL0 Copyright (c) Steve Scherf et al.
# Submitted via: CDex 1.50
#
DISCID=9b0bd20c
DTITLE=Joao Gilberto - Joao
DYEAR=1991
DGENRE=Jazz
TTITLE0=Eu Sambo Mesmo
TTITLE1=Siga
TTITLE2=Rosinha
TTITLE3=Malaga
TTITLE4=Una Mujer
TTITLE5=Eu E Meu Coracao
TTITLE6=You Do Something To Me
TTITLE7=Palpite Infeliz
TTITLE8=Ave Maria No Morro
TTITLE9=Sampa
TTITLE10=Sorriu Para Mim
TTITLE11=Que Reste-T-Il De Nos Amours
EXTD=Chris Altwegg YEAR: 1991
EXTT0=
EXTT1=
EXTT2=
EXTT3=
EXTT4=
EXTT5=
EXTT6=
EXTT7=
EXTT8=
EXTT9=
EXTT10=
EXTT11=
PLAYORDER=
